<svg xmlns="http://www.w3.org/2000/svg" xmlns:xlink="http://www.w3.org/1999/xlink" width="1344.6946411132812" height="390.1996154785156" viewBox="0 0 1344.6946411132812 390.1996154785156" fill="none"><path d="M523.285 305.374L462.511 305.374L462.511 212.424L523.285 212.424L523.285 305.374ZM645.385 211.049L645.385 305.374L583.785 305.374L583.785 202.798L462.511 202.798L462.511 159.898L595.335 159.898C628.7 159.898 645.385 176.949 645.385 211.049Z"   fill="#FFFFFF" ></path><path d="M728.981 305.374L667.932 305.374L667.932 159.898L728.981 159.898L728.981 305.374Z"   fill="#FFFFFF" ></path><path d="M872.801 207.198C872.801 204.084 869.503 202.524 862.902 202.524L751.526 202.524L751.526 159.898L871.427 159.898C877.657 159.898 884.443 160.681 891.777 162.237C899.108 163.796 905.94 166.408 912.265 170.073C918.589 173.744 923.814 178.646 927.94 184.786C932.065 190.932 934.128 198.494 934.128 207.474C934.128 216.274 932.293 223.562 928.628 229.337C924.958 235.112 920.282 239.834 914.602 243.5C928.168 255.418 934.953 269.074 934.953 284.474L934.953 305.374L873.352 305.374L873.352 282.274C873.352 276.409 871.745 271.184 868.54 266.6C865.331 262.018 861.342 258.169 856.577 255.049L812.852 255.049L812.852 305.374L751.526 305.374L751.526 212.149L862.902 212.149C869.503 212.149 872.801 210.5 872.801 207.198Z"   fill="#FFFFFF" ></path><path d="M1139.27 159.898L1139.27 202.798L1018 202.798L1018 212.149L1139.27 212.149L1139.27 253.125L1018 253.125L1018 262.474L1139.27 262.474L1139.27 305.374L956.668 305.374L956.668 159.898L1139.27 159.898Z"   fill="#FFFFFF" ></path><path d="M1294.64 159.898C1328.01 159.898 1344.69 176.949 1344.69 211.049L1344.69 305.374L1283.09 305.374L1283.09 202.798L1222.6 202.798L1222.6 305.374L1161.83 305.374L1161.83 159.898L1294.64 159.898Z"   fill="#FFFFFF" ></path><path d="M182.057 169.574C163.889 170.22 145.693 172.297 128.057 176.82C121.625 178.582 115.448 181.174 109.499 184.168C101.689 188.018 94.7268 193.589 89.2868 200.384C82.9521 209.213 79.8015 220.06 79.2108 230.836C78.2775 239.448 78.8748 248.13 79.5908 256.732C81.2175 268.815 85.6695 281.06 94.5748 289.7C105.096 299.396 118.892 304.608 132.645 307.764C146.427 310.791 160.5 312.293 174.573 313.117C176.145 313.149 177.719 312.976 179.296 312.987C177.42 313.687 175.397 313.416 173.445 313.611C182.307 313.252 191.173 313.729 200.04 313.681C224.776 313.708 249.647 313.101 274.035 308.648C278.785 307.635 283.656 307.108 288.249 305.471C296.205 303.003 304.069 299.895 310.945 295.117C320.165 289.276 326.912 279.845 329.921 269.4C332.216 261.097 333.181 252.485 333.648 243.905C333.968 233.037 332.547 222.109 329.195 211.756C326.18 202.504 319.775 194.554 311.776 189.093C300.3 181.316 286.937 176.728 273.336 174.385C262.223 172.177 250.959 170.816 239.673 169.944C236.583 169.916 233.496 169.808 230.427 169.477C214.304 169.081 198.164 169.005 182.057 169.574ZM139.019 0.260956C152.413 -1.06305 165.928 2.75027 177.475 9.4476C182.176 12.5823 186.785 15.929 190.751 19.9796C196.884 26.7916 202.416 34.3783 205.659 43.0169C208.604 51.2343 209.872 59.9969 209.683 68.713C209.797 77.0649 209.472 85.4329 209.791 93.7796C233.448 94.3049 257.125 98.1236 279.459 106.062C287.197 109.11 295.148 111.768 302.377 115.96C304.709 117.332 307.22 118.362 309.573 119.708C314.715 122.864 319.937 125.89 324.911 129.317C334.016 135.772 342.791 142.778 350.411 150.968C354.06 154.378 357.043 158.408 360.347 162.145C364.853 168.554 369.544 174.862 373.367 181.722C377.207 189.12 381.003 196.598 383.46 204.592C387.321 206.149 390.965 208.204 394.301 210.693C401.384 215.454 407.604 221.946 410.744 229.994C414.161 238.249 413.721 247.913 409.931 255.961C406.699 261.629 402.447 266.753 397.387 270.876C393.488 273.603 389.48 276.217 385.147 278.203C384.376 278.68 383.211 278.912 382.993 279.927C380.939 287.688 377.532 295.009 373.747 302.059C368.193 312.2 361.365 321.632 353.572 330.157C348.887 334.701 344.527 339.62 339.265 343.525C329.46 351.936 318.539 358.944 307.231 365.148C297.908 369.969 288.363 374.46 278.379 377.734C271.319 380.489 264.013 382.621 256.611 384.211C227.9 391.12 197.741 392.149 168.683 386.786C153.248 384.389 138.269 379.612 123.8 373.82C117.927 370.951 111.869 368.477 106.028 365.56C96.5321 360.272 87.3348 354.437 78.6361 347.907C71.4668 342.316 65.0401 335.845 58.7868 329.273C56.1015 326.496 53.7161 323.453 51.4921 320.303C47.9948 315.281 44.1708 310.46 41.3348 305.02C37.8855 299.299 34.8761 293.3 32.6841 286.988C31.4375 284.493 30.9655 281.657 29.6801 279.221C23.5841 275.979 17.2388 272.795 12.3588 267.779C4.26149 260.431 -0.987859 249.421 0.156152 238.362C0.785481 229.566 6.01348 221.952 12.0441 215.868C17.4295 210.921 23.5415 206.713 30.2935 203.865C30.9601 200.194 32.7655 196.892 33.8828 193.361C36.9695 185.296 41.3828 177.829 46.0641 170.6C50.3588 164.677 54.5841 158.68 59.5948 153.326C65.2455 147.605 70.8321 141.769 77.1495 136.764C82.4695 133.005 87.3081 128.532 93.0828 125.434C97.3895 123.168 101.3 120.212 105.687 118.097C111.164 115.401 116.473 112.353 122.168 110.13C130.753 106.681 139.431 103.368 148.439 101.188C164.8 96.7236 181.72 94.5223 198.641 93.8983C198.576 88.4583 198.647 83.0143 198.641 77.5743C193.869 76.7503 188.933 76.8369 184.319 75.2156C170.153 71.6036 156.936 63.6316 147.972 51.9716C144.772 47.2849 141.328 42.6969 139.181 37.3983C135.292 28.9009 133.812 19.4476 134.061 10.1476C134.159 7.63028 133.883 4.93027 135.129 2.63562C135.889 1.21561 137.5 0.520935 139.019 0.260956Z"   fill="#FFFFFF" ></path><path d="M256.16 16.6062C259.349 16.3021 262.689 16.1995 265.759 17.2569C267.983 17.8809 267.44 20.8142 267.641 22.5929C268.189 31.3142 265.797 40.2569 260.52 47.2687C252.18 59.9275 236.512 67.5142 221.397 65.6916C220.015 65.5568 219.2 64.0489 219.299 62.7636C219.184 58.1756 218.989 53.5008 220.172 49.0102C221.185 44.4222 223.388 40.2302 225.639 36.1409C227.704 32.5942 230.747 29.7795 233.659 26.9369C237.129 23.6021 241.468 21.3675 245.845 19.4582C249.121 18.0102 252.603 17.0342 256.16 16.6062Z"   fill="#FFFFFF" ></path><path d="M47.8227 280.758L22.8174 280.758C10.2147 280.758 6.10352e-05 270.542 6.10352e-05 257.941L6.10352e-05 221.525C6.10352e-05 208.922 10.2147 198.708 22.8174 198.708L47.8227 198.708L47.8227 280.758Z"   fill="#FFFFFF" ></path><path d="M390.243 280.758L365.237 280.758L365.237 198.708L390.243 198.708C402.845 198.708 413.06 208.922 413.06 221.525L413.06 257.941C413.06 270.542 402.845 280.758 390.243 280.758Z"   fill="#FFFFFF" ></path><path d="M151.641 244.172C150.013 244.172 148.383 243.673 147.049 242.768C145.644 241.756 144.717 239.864 144.747 237.986C144.721 237.086 144.74 236.309 144.757 235.532C144.792 233.984 144.828 232.382 144.584 230.71C143.812 226.302 139.773 222.908 135.377 222.908C135.156 222.908 134.935 222.917 134.712 222.934C134.609 222.93 134.508 222.928 134.407 222.928C131.357 222.928 128.364 224.881 126.595 228.024L126.515 228.178C125.323 230.66 125.4 233.224 125.468 235.484C125.531 237.549 125.585 239.332 124.725 240.686C123.471 242.802 120.939 244.126 118.231 244.126C116.392 244.126 114.725 243.525 113.52 242.432C111.472 240 111.585 236.433 111.705 232.66C111.723 232.102 111.74 231.552 111.751 231.01C112.408 224.054 115.776 217.837 120.771 214.364C124.115 211.969 127.381 210.517 130.511 210.024C132.007 209.86 133.549 209.769 134.977 209.769C139.135 209.769 142.565 210.51 145.467 212.034C148.001 213.401 150.876 215.154 152.795 217.712C156.468 222.482 158.26 226.528 158.453 230.466L158.473 231.134C158.572 234.133 158.665 236.966 158.119 239.666C157.769 241.504 156.14 242.841 154.729 243.49C153.785 243.941 152.728 244.172 151.641 244.172Z"   fill="#FFFFFF" ></path><path d="M282.064 244.162C281.055 244.162 280.017 243.993 279.067 243.673C277.008 242.965 275.325 240.678 274.992 238.116C274.913 237.294 274.956 236.261 275 235.169C275.123 232.214 275.273 228.537 272.613 225.589C270.904 223.825 268.617 222.893 266.109 222.893C262.085 222.893 258.376 225.216 256.879 228.674C255.816 231.034 255.901 233.456 255.976 235.59C256.024 236.968 256.071 238.272 255.799 239.381C255.013 241.61 253.304 243.313 251.424 243.733L251.255 243.777C250.688 243.942 250.073 244.026 249.428 244.026C248.047 244.026 246.503 243.644 244.951 242.917C243.364 241.684 242.336 239.534 242.317 237.378L242.309 236.808C242.261 233.265 242.215 229.918 243.013 226.745C244.861 219.384 250.925 213.005 258.46 210.496C260.437 209.861 262.687 209.808 264.819 209.808L267.079 209.813L267.589 209.805C272.112 209.805 277.057 211.885 281.513 215.661C284.381 217.908 286.611 221.228 288.216 225.589C289.052 229.361 289.253 233.574 288.815 238.117C288.693 240.004 287.767 241.786 286.324 242.99C285.133 243.757 283.664 244.162 282.064 244.162Z"   fill="#FFFFFF" ></path><path d="M200.595 296.128C200.253 296.128 199.912 296.12 199.571 296.102L198.392 295.964C195.825 295.669 193.403 295.389 191.292 294.449C189.119 293.478 186.996 292.25 184.987 290.798C179.759 286.35 176.633 279.966 176.625 273.702C176.637 272.701 176.625 271.662 176.612 270.622C176.585 268.501 176.561 266.492 176.745 264.517C177.464 262.518 179.213 260.864 181.267 260.261C182.089 260.026 183.039 259.924 184.416 259.924C184.933 259.924 185.453 259.938 185.972 259.952C186.535 259.965 187.096 259.98 187.655 259.98L189.892 259.982C194.467 259.993 199.04 260.004 203.613 260.004C207.975 260.004 212.335 259.994 216.695 259.966C218.872 259.988 221.113 260.882 222.651 262.358C223.837 263.493 223.98 265.704 223.963 267.718C223.933 268.688 223.937 269.721 223.943 270.754C223.956 273.32 223.967 275.741 223.413 278.022C220.983 288.18 210.959 296.128 200.595 296.128Z"   fill="#FFFFFF" ></path></svg>